<svg width="180" height="32" viewBox="0 0 180 32" fill="none" xmlns="http://www.w3.org/2000/svg">
<path d="M13.6517 29.8643C21.1913 29.8643 27.3034 23.7557 27.3034 16.2203C27.3034 8.68499 21.1913 2.57635 13.6517 2.57635C6.11206 2.57635 0 8.68499 0 16.2203C0 23.7557 6.11206 29.8643 13.6517 29.8643Z" fill="#3B9C25"/>
<path d="M13.8869 28.5934C21.2346 28.5934 27.1911 22.6404 27.1911 15.2967C27.1911 7.95315 21.2346 2 13.8869 2C6.53913 2 0.582642 7.95315 0.582642 15.2967C0.582642 22.6404 6.53913 28.5934 13.8869 28.5934Z" fill="white" stroke="#707070" stroke-width="0.314738" stroke-miterlimit="10"/>
<path d="M3.32336 7.22681L24.4649 23.3369" stroke="#707070" stroke-width="0.629476" stroke-miterlimit="10"/>
<path d="M31.9311 30C39.2788 30 45.2353 24.0468 45.2353 16.7032C45.2353 9.3597 39.2788 3.40652 31.9311 3.40652C24.5833 3.40652 18.627 9.3597 18.627 16.7032C18.627 24.0468 24.5833 30 31.9311 30Z" fill="#3B9C25"/>
<path d="M31.9316 29.2897C39.2793 29.2897 45.2358 23.3366 45.2358 15.993C45.2358 8.64934 39.2793 2.69623 31.9316 2.69623C24.5838 2.69623 18.6274 8.64934 18.6274 15.993C18.6274 23.3366 24.5838 29.2897 31.9316 29.2897Z" fill="white" stroke="#707070" stroke-width="0.314738" stroke-miterlimit="10"/>
<path d="M31.9317 2.71115V29.2749" stroke="#707070" stroke-width="0.629476" stroke-miterlimit="10"/>
<path fill-rule="evenodd" clip-rule="evenodd" d="M55.0691 12.1691H51.2361V9.91168H61.6742V12.1691H57.8412V21.8831H55.0691V12.1691ZM71.4791 19.3178H65.9178L64.8569 21.8831H62.0164L67.3552 9.91168H70.0931L75.449 21.8831H72.5401L71.4791 19.3178ZM70.6065 17.2142L68.707 12.6309L66.8076 17.2142H70.6065ZM88.1224 16.7525C87.7346 16.2394 87.1984 15.8746 86.5139 15.658C87.0159 15.3957 87.4037 15.0366 87.6775 14.5805C87.9627 14.1245 88.1053 13.6057 88.1053 13.0242C88.1053 12.0665 87.7118 11.3083 86.9246 10.7497C86.1489 10.191 85.0309 9.91168 83.5707 9.91168H77.7185V21.8831H83.9129C85.4758 21.8831 86.6622 21.6038 87.4721 21.0451C88.2935 20.475 88.7042 19.6655 88.7042 18.6166C88.7042 17.8755 88.5103 17.2541 88.1224 16.7525ZM80.4735 14.82V11.9981H83.2285C83.9129 11.9981 84.432 12.1178 84.7857 12.3573C85.1393 12.5853 85.3161 12.933 85.3161 13.4005C85.3161 13.8679 85.1393 14.2214 84.7857 14.4608C84.432 14.7002 83.9129 14.82 83.2285 14.82H80.4735ZM85.3504 19.4375C84.9853 19.6769 84.4377 19.7966 83.7076 19.7966H80.4735V16.838H83.7076C85.1792 16.838 85.915 17.334 85.915 18.3259C85.915 18.8275 85.7267 19.1981 85.3504 19.4375ZM91.8298 9.91168H94.6019V19.6256H100.608V21.8831H91.8298V9.91168ZM112.458 21.8831V19.6598H105.939V16.8893H111.5V14.7344H105.939V12.1349H112.236V9.91168H103.184V21.8831H112.458ZM118.172 12.1691H114.339V9.91168H124.777V12.1691H120.944V21.8831H118.172V12.1691ZM130.05 18.856L131.659 17.18L135.492 21.8831H138.726L133.472 15.2475L138.435 9.91168H135.355L130.05 15.504V9.91168H127.295V21.8831H130.05V18.856ZM140.989 9.91168H143.761V21.8831H140.989V9.91168ZM147.271 21.541C147.59 21.8603 147.984 22.0199 148.452 22.0199C148.919 22.0199 149.313 21.8603 149.632 21.541C149.952 21.2218 150.111 20.8227 150.111 20.3439C150.111 19.8536 149.952 19.4603 149.632 19.1638C149.313 18.856 148.919 18.7021 148.452 18.7021C147.984 18.7021 147.59 18.856 147.271 19.1638C146.951 19.4603 146.792 19.8536 146.792 20.3439C146.792 20.8227 146.951 21.2218 147.271 21.541ZM158.339 22.0883C156.629 22.0883 155.294 21.6151 154.336 20.6688C153.389 19.7225 152.916 18.3715 152.916 16.6157V9.91168H155.688V16.5131C155.688 18.6565 156.578 19.7282 158.357 19.7282C159.224 19.7282 159.886 19.4717 160.342 18.9586C160.799 18.4342 161.027 17.619 161.027 16.5131V9.91168H163.764V16.6157C163.764 18.3715 163.285 19.7225 162.327 20.6688C161.38 21.6151 160.051 22.0883 158.339 22.0883ZM169.607 19.3178H175.168L176.229 21.8831H179.138L173.782 9.91168H171.044L165.705 21.8831H168.546L169.607 19.3178ZM172.396 12.6309L174.296 17.2142H170.496L172.396 12.6309Z" fill="white"/>
</svg>
